<svg width="148" height="81" viewBox="0 0 148 81" fill="none" xmlns="http://www.w3.org/2000/svg">
<path d="M66.7843 9.62332C58.5031 1.57374 47.0465 -0.14014 42.3512 0.00864746C33.6048 0.00864746 25.0241 2.7678 17.3869 7.43294C9.75171 12.0981 0.884742 22.7298 0.103138 33.8869C-0.676582 45.046 2.8962 55.4724 13.1606 63.6689C23.4251 71.8654 40.916 78.8847 49.5796 79.979C58.2432 81.0751 66.6186 78.5589 73.1483 73.1235C79.6761 67.6861 83.9043 59.2862 83.9043 49.3062C83.9043 39.3243 77.1297 19.6862 66.7843 9.62332Z" fill="url(#paint0_linear_240_3353)"/>
<path d="M111.973 27.5404C110.972 27.6974 110.031 27.5908 109.15 27.2206C108.261 26.8518 107.502 26.287 106.875 25.526C106.256 24.7636 105.866 23.8638 105.703 22.8267L104.326 14.0469C104.168 13.0368 104.272 12.0779 104.638 11.1704C104.993 10.2553 105.542 9.4854 106.285 8.86067C107.027 8.22693 107.885 7.83369 108.859 7.68096C109.878 7.52115 110.836 7.62042 111.733 7.97874C112.632 8.34609 113.385 8.90715 113.993 9.66193C114.61 10.4153 115 11.3106 115.163 12.3477L115.362 13.6194C115.373 13.6915 115.334 13.7347 115.244 13.7488L112.132 14.2367C112.06 14.248 112.018 14.2176 112.007 14.1455L111.841 13.0903C111.731 12.3868 111.442 11.8362 110.973 11.4384C110.504 11.0407 109.972 10.8885 109.376 10.9818C108.844 11.0653 108.405 11.3605 108.06 11.8675C107.714 12.3744 107.588 12.9255 107.681 13.5208L109.058 22.3006C109.153 22.9049 109.438 23.3961 109.913 23.7744C110.387 24.1437 110.899 24.2852 111.449 24.1989C112.044 24.1056 112.507 23.8159 112.837 23.3298C113.166 22.8346 113.282 22.2759 113.184 21.6536L112.97 20.2873L111.035 20.5906C110.936 20.6062 110.88 20.5689 110.865 20.4787L110.38 17.3807C110.366 17.2905 110.408 17.2376 110.507 17.2221L115.689 16.4096C115.761 16.3983 115.804 16.4378 115.818 16.5279L116.539 21.1275C116.702 22.1647 116.605 23.1409 116.25 24.056C115.885 24.9725 115.336 25.7424 114.602 26.3657C113.868 26.989 112.992 27.3806 111.973 27.5404Z" fill="#FEFFFA"/>
<path d="M97.0201 29.6074L94.2468 30.0423C94.1025 30.0649 94.0204 30.0131 94.0006 29.8868L91.0144 11.0192C90.9918 10.8749 91.0526 10.7914 91.1969 10.7688L93.6996 10.3764L100.092 20.5597L98.2791 9.88006C98.2564 9.73576 98.3263 9.65088 98.4886 9.62543L101.235 9.19481C101.343 9.17784 101.409 9.24151 101.431 9.38581L104.422 28.2805C104.439 28.3887 104.402 28.4499 104.312 28.4641L101.877 28.8459L95.4747 19.3986L97.2432 29.3507C97.2658 29.495 97.1914 29.5805 97.0201 29.6074Z" fill="#FEFFFA"/>
<path d="M91.4568 30.4792L88.3182 30.9714C88.2281 30.9855 88.1759 30.9475 88.1618 30.8573L85.2042 11.8188C85.1929 11.7467 85.2233 11.7049 85.2954 11.6936L88.4069 11.2057C88.4791 11.1944 88.5208 11.2248 88.5321 11.297L91.5438 30.327C91.558 30.4172 91.5289 30.4679 91.4568 30.4792Z" fill="#FEFFFA"/>
<path d="M78.3521 32.5352L75.5788 32.97C75.4345 32.9926 75.3525 32.9408 75.3327 32.8146L72.3464 13.9469C72.3238 13.8026 72.3847 13.7192 72.529 13.6965L75.0317 13.3041L81.4243 23.4874L79.6111 12.8078C79.5885 12.6635 79.6583 12.5786 79.8207 12.5532L82.5669 12.1225C82.6751 12.1056 82.7405 12.1692 82.7632 12.3135L85.7536 31.2082C85.7706 31.3165 85.734 31.3776 85.6438 31.3918L83.2087 31.7736L76.8068 22.3264L78.5752 32.2784C78.5978 32.4227 78.5235 32.5083 78.3521 32.5352Z" fill="#FEFFFA"/>
<path d="M72.7927 33.407L69.6542 33.8991C69.564 33.9132 69.5118 33.8752 69.4977 33.785L66.5401 14.7466C66.5288 14.6744 66.5592 14.6327 66.6314 14.6214L69.7429 14.1335C69.815 14.1222 69.8568 14.1526 69.8681 14.2247L72.8797 33.2547C72.8939 33.3449 72.8649 33.3956 72.7927 33.407Z" fill="#FEFFFA"/>
<path d="M56.7399 35.785L57.1914 16.212C57.1981 16.137 57.2376 16.0939 57.3097 16.0826L61.3276 15.4525C61.3998 15.4412 61.4505 15.4702 61.4799 15.5396L67.7654 34.0562C67.7885 34.145 67.7595 34.1957 67.6784 34.2084L64.6075 34.69C64.5173 34.7041 64.4606 34.6668 64.4374 34.578L63.8216 32.5955L60.0473 33.1873L60.0678 35.2632C60.0729 35.3548 60.0349 35.407 59.9538 35.4197L56.8693 35.9033C56.7972 35.9146 56.754 35.8752 56.7399 35.785ZM60.1622 22.1637L60.1374 30.1376L62.8024 29.7197L60.4463 22.1192L60.1228 21.1165L60.1622 22.1637Z" fill="#FEFFFA"/>
<path d="M47.5743 37.3604L44.4357 37.8526C44.3636 37.8639 44.3204 37.8244 44.3063 37.7342L41.3758 18.6915C41.3645 18.6194 41.3949 18.5777 41.467 18.5663L47.0677 17.6881C48.0688 17.5312 49.0269 17.6304 49.942 17.9859C50.8571 18.3414 51.6271 18.8906 52.2518 19.6336C52.8855 20.3751 53.2837 21.2644 53.4463 22.3016C53.5524 22.978 53.5449 23.6075 53.4237 24.1902C53.3025 24.7729 53.1318 25.2755 52.9117 25.6982C52.7005 26.1194 52.4963 26.4379 52.2991 26.6536C53.4742 27.6059 54.179 28.8307 54.4138 30.3278L55.3318 36.0054C55.3459 36.0956 55.3079 36.1478 55.2177 36.1619L52.0792 36.654C52.007 36.6653 51.9667 36.6439 51.9582 36.5898L51.0588 30.8539C50.9542 30.1865 50.6292 29.646 50.0838 29.2326C49.5385 28.8191 48.9231 28.6661 48.2376 28.7736L46.4113 29.0599L47.6613 37.2082C47.6754 37.2984 47.6464 37.3491 47.5743 37.3604ZM47.5874 21.0026L45.2065 21.3759L45.8895 25.732L48.2705 25.3586C48.8387 25.2695 49.3105 24.9784 49.6859 24.4852C50.0704 23.9906 50.2146 23.4367 50.1184 22.8234C50.0265 22.2372 49.7308 21.7661 49.2315 21.4101C48.7307 21.0451 48.1827 20.9092 47.5874 21.0026Z" fill="#FEFFFA"/>
<path d="M39.144 38.6831L36.019 39.1732C35.9378 39.1859 35.8902 39.1472 35.876 39.057L33.3984 23.256L29.7999 23.8203C29.7097 23.8344 29.6575 23.7964 29.6434 23.7062L29.1847 20.604C29.1733 20.5318 29.2038 20.4901 29.2759 20.4788L39.8009 18.8284C39.9001 18.8129 39.9553 18.8412 39.9667 18.9133L40.4524 22.0113C40.4666 22.1015 40.4376 22.1522 40.3654 22.1635L36.7263 22.7342L39.231 38.5309C39.2452 38.6211 39.2162 38.6718 39.144 38.6831Z" fill="#FEFFFA"/>
<path d="M147.848 46.6455L138.893 48.0498C138.821 48.0611 138.777 48.0217 138.763 47.9315L135.806 28.893C135.794 28.8209 135.825 28.7792 135.897 28.7678L144.799 27.3721C144.871 27.3607 144.914 27.4002 144.928 27.4904L145.414 30.5883C145.425 30.6605 145.395 30.7022 145.323 30.7135L139.641 31.6045L140.319 35.9335L146.001 35.0426C146.073 35.0312 146.115 35.0617 146.127 35.1338L146.646 38.2681C146.657 38.3403 146.627 38.382 146.554 38.3933L140.846 39.2885L141.605 44.1316L147.314 43.2364C147.386 43.2251 147.429 43.2645 147.443 43.3547L147.94 46.5203C147.951 46.5925 147.921 46.6342 147.848 46.6455Z" fill="#FEFFFA"/>
<path d="M131.375 49.5049C130.374 49.6619 129.419 49.5529 128.51 49.1779C127.61 48.8016 126.85 48.2277 126.23 47.4563C125.618 46.6745 125.229 45.7604 125.065 44.7143L123.737 36.0655C123.576 35.0373 123.665 34.0716 124.003 33.1684C124.341 32.2561 124.88 31.4831 125.622 30.8493C126.371 30.2051 127.251 29.8039 128.261 29.6455C129.289 29.4842 130.243 29.5887 131.124 29.9589C132.013 30.3277 132.763 30.8984 133.374 31.6713C133.993 32.4336 134.383 33.3334 134.546 34.3706L134.745 35.6422C134.757 35.7144 134.726 35.7561 134.654 35.7674L131.543 36.2553C131.471 36.2666 131.429 36.2362 131.417 36.1641L131.218 34.8924C131.122 34.2791 130.841 33.7827 130.375 33.403C129.909 33.0233 129.378 32.8801 128.783 32.9734C128.124 33.0766 127.655 33.3813 127.373 33.8874C127.092 34.3935 126.999 34.9442 127.092 35.5394L128.447 44.1839C128.554 44.8604 128.839 45.3839 129.304 45.7546C129.767 46.1162 130.283 46.2525 130.851 46.1634C131.446 46.0701 131.905 45.7578 132.229 45.2266C132.551 44.6864 132.665 44.1232 132.574 43.537L132.372 42.2518C132.361 42.1796 132.391 42.1379 132.463 42.1266L135.602 41.6344C135.674 41.6231 135.716 41.6536 135.727 41.7257L135.929 43.0109C136.091 44.048 135.996 45.0332 135.644 45.9664C135.28 46.8919 134.733 47.6754 134.002 48.3167C133.27 48.949 132.394 49.3451 131.375 49.5049Z" fill="#FEFFFA"/>
<path d="M116.395 51.5762L113.622 52.011C113.477 52.0337 113.395 51.9818 113.376 51.8556L110.389 32.9879C110.367 32.8436 110.428 32.7602 110.572 32.7375L113.075 32.3451L119.467 42.5284L117.654 31.8488C117.631 31.7045 117.701 31.6196 117.864 31.5942L120.61 31.1636C120.718 31.1466 120.784 31.2103 120.806 31.3546L123.797 50.2493C123.814 50.3575 123.777 50.4187 123.687 50.4328L121.252 50.8146L114.85 41.3674L116.618 51.3194C116.641 51.4637 116.566 51.5493 116.395 51.5762Z" fill="#FEFFFA"/>
<path d="M100.599 53.9159L101.051 34.3429C101.058 34.2679 101.097 34.2247 101.169 34.2134L105.187 33.5834C105.259 33.5721 105.31 33.6011 105.339 33.6704L111.625 52.187C111.648 52.2758 111.619 52.3266 111.538 52.3393L108.467 52.8208C108.377 52.835 108.32 52.7977 108.297 52.7089L107.681 50.7263L103.907 51.3181L103.927 53.394C103.932 53.4857 103.894 53.5378 103.813 53.5505L100.729 54.0342C100.657 54.0455 100.613 54.0061 100.599 53.9159ZM104.022 40.2946L103.997 48.2685L106.662 47.8506L104.306 40.2501L103.982 39.2474L104.022 40.2946Z" fill="#FEFFFA"/>
<path d="M91.4376 55.4913L88.299 55.9834C88.2269 55.9947 88.1837 55.9553 88.1696 55.8651L85.2391 36.8224C85.2277 36.7502 85.2582 36.7085 85.3303 36.6972L90.931 35.819C91.9321 35.662 92.8902 35.7613 93.8053 36.1168C94.7204 36.4723 95.4903 37.0215 96.1151 37.7644C96.7488 38.5059 97.147 39.3953 97.3096 40.4324C97.4157 41.1089 97.4081 41.7384 97.287 42.3211C97.1658 42.9038 96.9951 43.4064 96.7749 43.829C96.5638 44.2502 96.3596 44.5687 96.1624 44.7845C97.3374 45.7368 98.0423 46.9615 98.2771 48.4587L99.1951 54.1363C99.2092 54.2265 99.1712 54.2786 99.081 54.2928L95.9425 54.7849C95.8703 54.7962 95.83 54.7748 95.8215 54.7207L94.9221 48.9847C94.8174 48.3173 94.4924 47.7769 93.9471 47.3634C93.4017 46.9499 92.7864 46.7969 92.1009 46.9044L90.2746 47.1908L91.5246 55.339C91.5387 55.4292 91.5097 55.48 91.4376 55.4913ZM91.4507 39.1334L89.0697 39.5068L89.7528 43.8628L92.1338 43.4895C92.7019 43.4004 93.1738 43.1093 93.5492 42.6161C93.9337 42.1215 94.0778 41.5676 93.9817 40.9543C93.8898 40.3681 93.5941 39.8969 93.0947 39.5409C92.594 39.1759 92.0459 39.0401 91.4507 39.1334Z" fill="#FEFFFA"/>
<path d="M80.5877 57.4691C79.6137 57.6219 78.6722 57.5108 77.7633 57.1358C76.8543 56.7609 76.0854 56.1884 75.4564 55.4184C74.8351 54.638 74.4452 53.7427 74.2868 52.7326L72.1687 38.8712C72.1574 38.7991 72.1878 38.7573 72.26 38.746L75.3715 38.2581C75.4436 38.2468 75.4854 38.2772 75.4967 38.3494L77.6689 52.2023C77.7664 52.8246 78.0483 53.3256 78.5144 53.7053C78.9791 54.076 79.4956 54.2168 80.0638 54.1277C80.659 54.0343 81.1211 53.7401 81.45 53.245C81.7776 52.7408 81.8926 52.1776 81.795 51.5553L79.6228 37.7024C79.6115 37.6303 79.6419 37.5885 79.714 37.5772L82.8255 37.0893C82.8977 37.078 82.9394 37.1084 82.9507 37.1806L85.177 51.025C85.3368 52.0441 85.2404 53.0203 84.8877 53.9534C84.5246 54.879 83.9723 55.6586 83.2308 56.2924C82.4879 56.9171 81.6068 57.3093 80.5877 57.4691Z" fill="#FEFFFA"/>
<path d="M67.4748 59.2203L62.5142 60.0259C62.424 60.04 62.3719 60.002 62.3577 59.9118L59.4272 40.8691C59.4159 40.797 59.4463 40.7552 59.5185 40.7439L64.6955 39.9044C65.7194 39.7162 66.6852 39.805 67.5927 40.1709C68.5092 40.5354 69.2819 41.1027 69.9109 41.8727C70.5475 42.6322 70.9457 43.5216 71.1055 44.5407L72.3528 52.4953C72.5197 53.5595 72.4153 54.5739 72.0399 55.5383C71.6539 56.4952 71.0691 57.303 70.2853 57.9619C69.5001 58.6117 68.5633 59.0312 67.4748 59.2203ZM65.2153 43.2188L63.285 43.5492L65.2264 56.1077L66.9445 55.8383C67.63 55.7308 68.1697 55.4013 68.5637 54.8498C68.9577 54.2982 69.1024 53.6888 68.9978 53.0214L67.7462 45.0397C67.6543 44.4535 67.358 43.9779 66.8572 43.6129C66.355 43.2388 65.8077 43.1075 65.2153 43.2188Z" fill="#FEFFFA"/>
<path d="M52.5435 61.5898L49.7702 62.0247C49.6259 62.0473 49.5439 61.9955 49.5241 61.8692L46.5378 43.0016C46.5152 42.8573 46.5761 42.7738 46.7204 42.7512L49.2231 42.3588L55.6157 52.5421L53.8025 41.8625C53.7799 41.7182 53.8497 41.6333 54.0121 41.6079L56.7583 41.1772C56.8665 41.1603 56.932 41.2239 56.9546 41.3682L59.9451 60.2629C59.962 60.3711 59.9254 60.4323 59.8352 60.4465L57.4001 60.8283L50.9982 51.3811L52.7666 61.3331C52.7892 61.4774 52.7149 61.563 52.5435 61.5898Z" fill="#FEFFFA"/>
<path d="M46.9539 62.4658L37.9982 63.8701C37.9261 63.8814 37.8829 63.842 37.8688 63.7518L34.9112 44.7134C34.8999 44.6412 34.9303 44.5995 35.0025 44.5882L43.904 43.1924C43.9762 43.1811 44.0193 43.2205 44.0335 43.3107L44.5193 46.4086C44.5306 46.4808 44.5001 46.5225 44.428 46.5338L38.7461 47.4248L39.4249 51.7538L45.1068 50.8629C45.179 50.8516 45.2207 50.882 45.232 50.9541L45.7512 54.0884C45.7625 54.1606 45.7321 54.2023 45.6599 54.2136L39.951 55.1088L40.7104 59.9519L46.4194 59.0567C46.4915 59.0454 46.5346 59.0849 46.5488 59.175L47.0452 62.3407C47.0565 62.4128 47.0261 62.4545 46.9539 62.4658Z" fill="#FEFFFA"/>
<defs>
<linearGradient id="paint0_linear_240_3353" x1="21.9297" y1="-13.3728" x2="105.083" y2="109.704" gradientUnits="userSpaceOnUse">
<stop stop-color="#ED2F2F"/>
<stop offset="1" stop-color="#871B1B"/>
</linearGradient>
</defs>
</svg>
